<svg width="175" height="25" viewBox="0 0 175 25" fill="none" xmlns="http://www.w3.org/2000/svg">
<path d="M20.734 0.773999C21.254 0.773999 21.6527 0.843333 21.93 0.982C22.2073 1.12067 22.346 1.398 22.346 1.814C22.346 1.95267 22.32 2.126 22.268 2.334L21.696 4.856L9.008 4.882L7.084 13.358H1.78L3.73 4.882L4.224 2.62C4.36267 2.03067 4.57067 1.58 4.848 1.268C5.14267 0.955999 5.61067 0.799999 6.252 0.799999L20.734 0.773999ZM1.156 15.984C1.29467 15.3773 1.55467 14.9613 1.936 14.736C2.31733 14.5107 2.80267 14.4067 3.392 14.424H19.616L18.914 17.44C18.7753 18.0467 18.5153 18.4627 18.134 18.688C17.7527 18.9133 17.2673 19.0173 16.678 19L0.48 18.974L1.156 15.984ZM42.5953 0.773999C43.1153 0.773999 43.514 0.843333 43.7913 0.982C44.0687 1.12067 44.2073 1.398 44.2073 1.814C44.2073 1.95267 44.1813 2.126 44.1293 2.334L43.5573 4.856L41.3733 14.424L40.6713 17.44C40.5327 18.0467 40.2727 18.4627 39.8913 18.688C39.51 18.9133 39.0247 19.0173 38.4353 19L28.8673 18.974L29.5433 15.984C29.682 15.3773 29.942 14.9613 30.3233 14.736C30.7047 14.5107 31.19 14.4067 31.7793 14.424H36.0953L38.2533 4.856L30.8693 4.882L27.6713 19H22.3413L25.5653 4.882L26.0853 2.62C26.224 2.03067 26.432 1.58 26.7093 1.268C27.004 0.955999 27.472 0.799999 28.1133 0.799999L42.5953 0.773999ZM64.4567 0.773999C64.9767 0.773999 65.3753 0.843333 65.6527 0.982C65.93 1.12067 66.0687 1.398 66.0687 1.814C66.0687 1.95267 66.0427 2.126 65.9907 2.334L65.4187 4.856L63.2347 14.424L62.5327 17.44C62.394 18.0467 62.134 18.4627 61.7527 18.688C61.3713 18.9133 60.886 19.0173 60.2967 19L50.7287 18.974L51.4047 15.984C51.5433 15.3773 51.8033 14.9613 52.1847 14.736C52.566 14.5107 53.0513 14.4067 53.6407 14.424H57.9567L60.1147 4.856L53.5627 4.882L54.4727 0.799999L64.4567 0.773999ZM44.2027 19L48.2847 0.799999H53.5627L49.5327 19H44.2027ZM86.734 0.799999L85.668 5.428H74.384L72.616 13.41H67.286L70.146 0.799999H86.734ZM84.862 7.924L84.29 10.914C84.1513 11.5207 83.9173 11.9367 83.588 12.162C83.2587 12.3873 82.834 12.4913 82.314 12.474H73.942L74.566 9.458C74.6873 8.85133 74.9127 8.43533 75.242 8.21C75.5713 7.98467 75.996 7.88067 76.516 7.898L84.862 7.924ZM66.74 15.984C66.8787 15.3773 67.1387 14.9613 67.52 14.736C67.9013 14.5107 68.3867 14.4067 68.976 14.424H83.77L83.068 17.44C82.9293 18.0467 82.6693 18.4627 82.288 18.688C81.9067 18.9133 81.4213 19.0173 80.832 19L66.064 18.974L66.74 15.984ZM115.691 6C116.558 6 117.208 6.026 117.641 6.078C118.074 6.13 118.386 6.25133 118.577 6.442C118.785 6.61533 118.889 6.90133 118.889 7.3C118.889 7.664 118.828 8.08867 118.707 8.574L117.381 14.424L116.679 17.44C116.54 18.0467 116.28 18.4627 115.899 18.688C115.518 18.9133 115.032 19.0173 114.443 19H103.393L104.069 16.01C104.208 15.4033 104.468 14.9873 104.849 14.762C105.23 14.5367 105.716 14.4327 106.305 14.45L112.649 14.424L113.715 9.796L104.095 9.77L100.897 24.2H95.5669L99.6489 6H114.183H115.691ZM126.008 19H120.704L124.76 0.799999H128.166C128.668 0.799999 129.058 0.877999 129.336 1.034C129.613 1.17267 129.752 1.45 129.752 1.866C129.752 2.074 129.734 2.23867 129.7 2.36L126.008 19ZM149.958 4.804C150.79 4.804 151.371 4.934 151.7 5.194C152.029 5.43667 152.194 5.792 152.194 6.26C152.194 6.50267 152.142 6.86667 152.038 7.352L151.908 7.898L149.464 19H132.408C131.905 19.0173 131.507 18.948 131.212 18.792C130.935 18.6187 130.796 18.324 130.796 17.908C130.796 17.8387 130.813 17.6827 130.848 17.44L131.888 12.24C132.061 11.3907 132.243 10.8013 132.434 10.472C132.642 10.1253 132.954 9.90867 133.37 9.822C133.786 9.718 134.497 9.666 135.502 9.666H137.114H143.042C143.597 9.666 144.004 9.73533 144.264 9.874C144.524 10.0127 144.654 10.2813 144.654 10.68C144.654 10.836 144.628 11.018 144.576 11.226L144.134 13.228L136.412 13.202L135.892 15.75L144.862 15.776L145.278 13.904H145.252L146.526 8.366H133.162L133.682 6.364C133.838 5.75733 134.098 5.34133 134.462 5.116C134.843 4.89067 135.329 4.78667 135.918 4.804H149.958ZM155.167 19C154.751 19.0173 154.404 18.896 154.127 18.636C153.867 18.376 153.737 18.064 153.737 17.7C153.737 17.6133 153.754 17.5007 153.789 17.362L154.361 15.1L156.181 7.56C156.319 6.95333 156.571 6.546 156.935 6.338C157.316 6.11267 157.81 6 158.417 6L161.797 6.026L159.795 14.45H166.165L165.489 17.44C165.35 18.0467 165.09 18.4627 164.709 18.688C164.327 18.9133 163.842 19.0173 163.253 19H155.167ZM166.191 19L169.155 6H174.433L171.521 19H166.191ZM155.349 19.884H171.365L170.845 22.146C170.706 22.7353 170.489 23.186 170.195 23.498C169.917 23.81 169.458 23.966 168.817 23.966H156.025C155.557 23.966 155.227 23.8793 155.037 23.706C154.846 23.5327 154.751 23.2813 154.751 22.952C154.751 22.6747 154.785 22.406 154.855 22.146L155.349 19.884Z" fill="url(#paint0_linear_154_6)"/>
<defs>
<linearGradient id="paint0_linear_154_6" x1="63.5" y1="22" x2="173.5" y2="22" gradientUnits="userSpaceOnUse">
<stop stop-color="#11D6D4"/>
<stop offset="1" stop-color="#00DBA7"/>
</linearGradient>
</defs>
</svg>
