<svg width="85" height="72" viewBox="0 0 85 72" fill="none" xmlns="http://www.w3.org/2000/svg">
<path d="M77.9 0.899997C79.9 0.899997 81.4333 1.16666 82.5 1.7C83.5667 2.23333 84.1 3.3 84.1 4.9C84.1 5.43333 84 6.1 83.8 6.9L81.6 16.6L32.8 16.7L25.4 49.3H5L12.5 16.7L14.4 7.99999C14.9333 5.73333 15.7333 4 16.8 2.8C17.9333 1.6 19.7333 0.999995 22.2 0.999995L77.9 0.899997ZM2.6 59.4C3.13333 57.0667 4.13333 55.4667 5.6 54.6C7.06667 53.7333 8.93333 53.3333 11.2 53.4H73.6L70.9 65C70.3667 67.3333 69.3667 68.9333 67.9 69.8C66.4333 70.6667 64.5667 71.0667 62.3 71L-1.41561e-07 70.9L2.6 59.4Z" fill="url(#paint0_linear_140_5)"/>
<defs>
<linearGradient id="paint0_linear_140_5" x1="-0.5" y1="90.9999" x2="87.002" y2="91.0419" gradientUnits="userSpaceOnUse">
<stop stop-color="#3DE8E7"/>
<stop offset="1" stop-color="#00DBA7"/>
</linearGradient>
</defs>
</svg>
