<?xml version="1.0" encoding="UTF-8"?>
<svg xmlns="http://www.w3.org/2000/svg" xmlns:xlink="http://www.w3.org/1999/xlink" viewBox="0 0 24 24" width="24px" height="24px">
<g id="surface56417314">
<path style=" stroke:none;fill-rule:nonzero;fill:rgb(26.274511%,26.274511%,26.274511%);fill-opacity:1;" d="M 19 3 L 5 3 C 3.894531 3 3 3.894531 3 5 L 3 19 C 3 20.105469 3.894531 21 5 21 L 19 21 C 20.105469 21 21 20.105469 21 19 L 21 5 C 21 3.894531 20.105469 3 19 3 Z M 7.738281 17 C 7.039062 17 6.476562 16.433594 6.476562 15.738281 L 6.476562 11.261719 C 6.476562 10.566406 7.042969 10 7.738281 10 C 8.433594 10 9 10.566406 9 11.261719 L 9 15.738281 C 9 16.433594 8.433594 17 7.738281 17 Z M 7.695312 8.71875 C 6.921875 8.71875 6.40625 8.203125 6.40625 7.515625 C 6.40625 6.832031 6.921875 6.316406 7.777344 6.316406 C 8.550781 6.316406 9.066406 6.832031 9.066406 7.515625 C 9.066406 8.203125 8.550781 8.71875 7.695312 8.71875 Z M 16.777344 17 C 16.105469 17 15.558594 16.453125 15.558594 15.777344 L 15.558594 13.175781 C 15.558594 12.117188 14.90625 12 14.664062 12 C 14.417969 12 13.605469 12.035156 13.605469 13.175781 L 13.605469 15.777344 C 13.605469 16.453125 13.058594 17 12.382812 17 L 12.304688 17 C 11.628906 17 11.082031 16.453125 11.082031 15.777344 L 11.082031 11.261719 C 11.082031 10.566406 11.648438 10 12.34375 10 C 13.039062 10 13.605469 10.566406 13.605469 11.261719 C 13.605469 11.261719 13.886719 10 15.804688 10 C 17.023438 10 18 10.976562 18 13.175781 L 18 15.777344 C 18 16.453125 17.453125 17 16.777344 17 Z M 16.777344 17 "/>
</g>
</svg>
